<svg xmlns="http://www.w3.org/2000/svg" width="1600" height="1115" viewBox="0 0 1600 1115" role="img" aria-labelledby="title desc">
<title id="title">Linked stack push(71)</title>
<desc id="desc">Blue shows existing items. Orange shows the item or pointer changed in this step.</desc>
<rect width="1600" height="1115" fill="white"/>
<text x="40" y="35" font-family="Arial, Helvetica, sans-serif" font-size="32" font-weight="700" fill="#10293b" text-anchor="start" dominant-baseline="middle">Before push(71)</text>
<rect x="340" y="130" width="160" height="110" fill="white" stroke="#10293b" stroke-width="3"/>
<text x="354" y="160" font-family="Arial, Helvetica, sans-serif" font-size="26" font-weight="400" fill="#10293b" text-anchor="start" dominant-baseline="middle">top:</text>
<text x="354" y="200" font-family="Arial, Helvetica, sans-serif" font-size="26" font-weight="400" fill="#10293b" text-anchor="start" dominant-baseline="middle">size_: 1</text>
<rect x="800" y="130" width="180" height="110" fill="#a8c9eb" stroke="#10293b" stroke-width="3"/>
<polyline points="800,182 980,182" fill="none" stroke="#73899a" stroke-width="4" stroke-linejoin="round"/>
<text x="814" y="158" font-family="Arial, Helvetica, sans-serif" font-size="26" font-weight="400" fill="#10293b" text-anchor="start" dominant-baseline="middle">val: 99</text>
<text x="814" y="212" font-family="Arial, Helvetica, sans-serif" font-size="24" font-weight="400" fill="#10293b" text-anchor="start" dominant-baseline="middle">next: nullptr</text>
<polyline points="440,160 525,160 525,105 840,105 840,130" fill="none" stroke="#1f5f85" stroke-width="4" stroke-linejoin="round"/>
<polygon points="840,130 833.0,116.0 847.0,116.0" fill="#1f5f85"/>
<polyline points="30,345 1570,345" fill="none" stroke="#d8dfe5" stroke-width="4" stroke-linejoin="round"/>
<text x="40" y="385" font-family="Arial, Helvetica, sans-serif" font-size="32" font-weight="700" fill="#10293b" text-anchor="start" dominant-baseline="middle">1. Create and link newNode</text>
<text x="40" y="427" font-family="Arial, Helvetica, sans-serif" font-size="26" font-weight="400" fill="#10293b" text-anchor="start" dominant-baseline="middle">newNode = new Node{71, top}</text>
<rect x="340" y="480" width="160" height="110" fill="white" stroke="#10293b" stroke-width="3"/>
<text x="354" y="510" font-family="Arial, Helvetica, sans-serif" font-size="26" font-weight="400" fill="#10293b" text-anchor="start" dominant-baseline="middle">top:</text>
<text x="354" y="550" font-family="Arial, Helvetica, sans-serif" font-size="26" font-weight="400" fill="#10293b" text-anchor="start" dominant-baseline="middle">size_: 1</text>
<rect x="570" y="480" width="180" height="110" fill="#fcd9a3" stroke="#10293b" stroke-width="3"/>
<polyline points="570,532 750,532" fill="none" stroke="#73899a" stroke-width="4" stroke-linejoin="round"/>
<text x="584" y="508" font-family="Arial, Helvetica, sans-serif" font-size="26" font-weight="400" fill="#10293b" text-anchor="start" dominant-baseline="middle">val: 71</text>
<text x="584" y="562" font-family="Arial, Helvetica, sans-serif" font-size="24" font-weight="400" fill="#e8730c" text-anchor="start" dominant-baseline="middle">next:</text>
<polyline points="655,562 800,562" fill="none" stroke="#e8730c" stroke-width="4" stroke-linejoin="round"/>
<polygon points="800,562 786.0,569.0 786.0,555.0" fill="#e8730c"/>
<rect x="800" y="480" width="180" height="110" fill="#a8c9eb" stroke="#10293b" stroke-width="3"/>
<polyline points="800,532 980,532" fill="none" stroke="#73899a" stroke-width="4" stroke-linejoin="round"/>
<text x="814" y="508" font-family="Arial, Helvetica, sans-serif" font-size="26" font-weight="400" fill="#10293b" text-anchor="start" dominant-baseline="middle">val: 99</text>
<text x="814" y="562" font-family="Arial, Helvetica, sans-serif" font-size="24" font-weight="400" fill="#10293b" text-anchor="start" dominant-baseline="middle">next: nullptr</text>
<polyline points="440,510 525,510 525,455 840,455 840,480" fill="none" stroke="#1f5f85" stroke-width="4" stroke-linejoin="round"/>
<polygon points="840,480 833.0,466.0 847.0,466.0" fill="#1f5f85"/>
<text x="660" y="410" font-family="Arial, Helvetica, sans-serif" font-size="26" font-weight="700" fill="#10293b" text-anchor="middle" dominant-baseline="middle">newNode</text>
<polyline points="660,432 660,480" fill="none" stroke="#1f5f85" stroke-width="4" stroke-linejoin="round"/>
<polygon points="660,480 653.0,466.0 667.0,466.0" fill="#1f5f85"/>
<polyline points="30,695 1570,695" fill="none" stroke="#d8dfe5" stroke-width="4" stroke-linejoin="round"/>
<text x="40" y="735" font-family="Arial, Helvetica, sans-serif" font-size="32" font-weight="700" fill="#10293b" text-anchor="start" dominant-baseline="middle">2. Move top and update size</text>
<text x="40" y="777" font-family="Arial, Helvetica, sans-serif" font-size="26" font-weight="400" fill="#10293b" text-anchor="start" dominant-baseline="middle">top = newNode; ++size_</text>
<rect x="340" y="830" width="160" height="110" fill="white" stroke="#10293b" stroke-width="3"/>
<text x="354" y="860" font-family="Arial, Helvetica, sans-serif" font-size="26" font-weight="400" fill="#10293b" text-anchor="start" dominant-baseline="middle">top:</text>
<text x="354" y="900" font-family="Arial, Helvetica, sans-serif" font-size="26" font-weight="400" fill="#10293b" text-anchor="start" dominant-baseline="middle">size_: 2</text>
<rect x="570" y="830" width="180" height="110" fill="#fcd9a3" stroke="#10293b" stroke-width="3"/>
<polyline points="570,882 750,882" fill="none" stroke="#73899a" stroke-width="4" stroke-linejoin="round"/>
<text x="584" y="858" font-family="Arial, Helvetica, sans-serif" font-size="26" font-weight="400" fill="#10293b" text-anchor="start" dominant-baseline="middle">val: 71</text>
<text x="584" y="912" font-family="Arial, Helvetica, sans-serif" font-size="24" font-weight="400" fill="#10293b" text-anchor="start" dominant-baseline="middle">next:</text>
<polyline points="655,912 800,912" fill="none" stroke="#1f5f85" stroke-width="4" stroke-linejoin="round"/>
<polygon points="800,912 786.0,919.0 786.0,905.0" fill="#1f5f85"/>
<rect x="800" y="830" width="180" height="110" fill="#a8c9eb" stroke="#10293b" stroke-width="3"/>
<polyline points="800,882 980,882" fill="none" stroke="#73899a" stroke-width="4" stroke-linejoin="round"/>
<text x="814" y="858" font-family="Arial, Helvetica, sans-serif" font-size="26" font-weight="400" fill="#10293b" text-anchor="start" dominant-baseline="middle">val: 99</text>
<text x="814" y="912" font-family="Arial, Helvetica, sans-serif" font-size="24" font-weight="400" fill="#10293b" text-anchor="start" dominant-baseline="middle">next: nullptr</text>
<polyline points="440,860 570,858" fill="none" stroke="#e8730c" stroke-width="4" stroke-linejoin="round"/>
<polygon points="570,858 556.1093360759868,865.2145308752627 555.893976945382,851.216187385947" fill="#e8730c"/>
<text x="660" y="760" font-family="Arial, Helvetica, sans-serif" font-size="26" font-weight="700" fill="#10293b" text-anchor="middle" dominant-baseline="middle">newNode</text>
<polyline points="660,782 660,830" fill="none" stroke="#1f5f85" stroke-width="4" stroke-linejoin="round"/>
<polygon points="660,830 653.0,816.0 667.0,816.0" fill="#1f5f85"/>
</svg>
