<?xml version="1.0" encoding="UTF-8"?>
<svg xmlns="http://www.w3.org/2000/svg" width="1920" height="1080" viewBox="0 0 1920 1080">
<rect x="0" y="0" width="1920" height="1080" fill="#ffffff"/>
<g transform="translate(92.4,0.0) scale(0.8464)">
<rect x="20.0" y="20.0" width="2010.0" height="374.0" rx="14" fill="#f8fafc" stroke="#94a3b8" stroke-width="2"/>
<text x="40.0" y="52.0" dominant-baseline="middle" font-family="Arial, Helvetica, sans-serif" font-size="30" font-weight="700" fill="#111827">Case 1: Empty list</text>
<text x="2010.0" y="52.0" text-anchor="end" dominant-baseline="middle" font-family="Arial, Helvetica, sans-serif" font-size="24" font-weight="400" fill="#111827">Orange = changed in this step</text>
<line x1="1606.0" y1="52.0" x2="1646.0" y2="52.0" stroke="#e8730c" stroke-width="4"/>
<text x="60.0" y="102.0" dominant-baseline="middle" font-family="Arial, Helvetica, sans-serif" font-size="24" fill="#111827"><tspan font-weight="700">Step 0:</tspan><tspan font-family="Menlo, Consolas, 'Courier New', monospace" dx="10">head == nullptr</tspan></text>
<g transform="translate(40.0,106.0)">
<rect x="20.0" y="96.0" width="180.0" height="100.0" fill="#ffffff" stroke="#10293b" stroke-width="3"/>
<text x="36.0" y="130.0" text-anchor="start" dominant-baseline="middle" font-family="Arial, Helvetica, sans-serif" font-size="24" font-weight="400" fill="#111827">head: nullptr</text>
<text x="36.0" y="164.0" text-anchor="start" dominant-baseline="middle" font-family="Arial, Helvetica, sans-serif" font-size="24" font-weight="400" fill="#111827">tail: nullptr</text>
<rect x="270.0" y="96.0" width="180.0" height="100.0" fill="#fcd9a3" stroke="#10293b" stroke-width="3"/>
<text x="286.0" y="130.0" text-anchor="start" dominant-baseline="middle" font-family="Arial, Helvetica, sans-serif" font-size="24" font-weight="400" fill="#111827">data: 42</text>
<text x="286.0" y="164.0" text-anchor="start" dominant-baseline="middle" font-family="Arial, Helvetica, sans-serif" font-size="24" font-weight="400" fill="#111827">next: nullptr</text>
<text x="360.0" y="38.0" text-anchor="middle" dominant-baseline="middle" font-family="Arial, Helvetica, sans-serif" font-size="24" font-weight="700" fill="#111827">newNode</text>
<polyline points="360.0,56.0 360.0,80.0" fill="none" stroke="#1f5f85" stroke-width="4" stroke-linejoin="miter"/>
<polygon points="360.0,96.0 352.0,80.0 368.0,80.0" fill="#1f5f85"/>
</g>
<line x1="525.0" y1="84.0" x2="525.0" y2="366.0" stroke="#94a3b8" stroke-width="1.5" stroke-dasharray="6 6"/>
<text x="560.0" y="102.0" dominant-baseline="middle" font-family="Arial, Helvetica, sans-serif" font-size="24" fill="#111827"><tspan font-weight="700">Step 1:</tspan><tspan font-family="Menlo, Consolas, 'Courier New', monospace" dx="10">newNode-&gt;next = head</tspan></text>
<g transform="translate(540.0,106.0)">
<rect x="20.0" y="96.0" width="180.0" height="100.0" fill="#ffffff" stroke="#10293b" stroke-width="3"/>
<text x="36.0" y="130.0" text-anchor="start" dominant-baseline="middle" font-family="Arial, Helvetica, sans-serif" font-size="24" font-weight="400" fill="#111827">head: nullptr</text>
<text x="36.0" y="164.0" text-anchor="start" dominant-baseline="middle" font-family="Arial, Helvetica, sans-serif" font-size="24" font-weight="400" fill="#111827">tail: nullptr</text>
<rect x="270.0" y="96.0" width="180.0" height="100.0" fill="#fcd9a3" stroke="#10293b" stroke-width="3"/>
<text x="286.0" y="130.0" text-anchor="start" dominant-baseline="middle" font-family="Arial, Helvetica, sans-serif" font-size="24" font-weight="400" fill="#111827">data: 42</text>
<text x="286.0" y="164.0" text-anchor="start" dominant-baseline="middle" font-family="Arial, Helvetica, sans-serif" font-size="24" font-weight="400" fill="#e8730c">next: nullptr</text>
<text x="360.0" y="38.0" text-anchor="middle" dominant-baseline="middle" font-family="Arial, Helvetica, sans-serif" font-size="24" font-weight="700" fill="#111827">newNode</text>
<polyline points="360.0,56.0 360.0,80.0" fill="none" stroke="#1f5f85" stroke-width="4" stroke-linejoin="miter"/>
<polygon points="360.0,96.0 352.0,80.0 368.0,80.0" fill="#1f5f85"/>
</g>
<line x1="1025.0" y1="84.0" x2="1025.0" y2="366.0" stroke="#94a3b8" stroke-width="1.5" stroke-dasharray="6 6"/>
<text x="1060.0" y="102.0" dominant-baseline="middle" font-family="Arial, Helvetica, sans-serif" font-size="24" fill="#111827"><tspan font-weight="700">Step 2:</tspan><tspan font-family="Menlo, Consolas, 'Courier New', monospace" dx="10">head = newNode</tspan></text>
<g transform="translate(1040.0,106.0)">
<rect x="20.0" y="96.0" width="180.0" height="100.0" fill="#ffffff" stroke="#10293b" stroke-width="3"/>
<text x="36.0" y="130.0" text-anchor="start" dominant-baseline="middle" font-family="Arial, Helvetica, sans-serif" font-size="24" font-weight="400" fill="#111827">head:</text>
<text x="36.0" y="164.0" text-anchor="start" dominant-baseline="middle" font-family="Arial, Helvetica, sans-serif" font-size="24" font-weight="400" fill="#111827">tail: nullptr</text>
<rect x="270.0" y="96.0" width="180.0" height="100.0" fill="#fcd9a3" stroke="#10293b" stroke-width="3"/>
<text x="286.0" y="130.0" text-anchor="start" dominant-baseline="middle" font-family="Arial, Helvetica, sans-serif" font-size="24" font-weight="400" fill="#111827">data: 42</text>
<text x="286.0" y="164.0" text-anchor="start" dominant-baseline="middle" font-family="Arial, Helvetica, sans-serif" font-size="24" font-weight="400" fill="#111827">next: nullptr</text>
<polyline points="104.0,130.0 254.0,130.0" fill="none" stroke="#e8730c" stroke-width="4" stroke-linejoin="miter"/>
<polygon points="270.0,130.0 254.0,138.0 254.0,122.0" fill="#e8730c"/>
<text x="360.0" y="38.0" text-anchor="middle" dominant-baseline="middle" font-family="Arial, Helvetica, sans-serif" font-size="24" font-weight="700" fill="#111827">newNode</text>
<polyline points="360.0,56.0 360.0,80.0" fill="none" stroke="#1f5f85" stroke-width="4" stroke-linejoin="miter"/>
<polygon points="360.0,96.0 352.0,80.0 368.0,80.0" fill="#1f5f85"/>
</g>
<line x1="1525.0" y1="84.0" x2="1525.0" y2="366.0" stroke="#94a3b8" stroke-width="1.5" stroke-dasharray="6 6"/>
<text x="1560.0" y="102.0" dominant-baseline="middle" font-family="Arial, Helvetica, sans-serif" font-size="24" fill="#111827"><tspan font-weight="700">Step 3:</tspan><tspan font-family="Menlo, Consolas, 'Courier New', monospace" dx="10">tail = newNode</tspan></text>
<g transform="translate(1540.0,106.0)">
<rect x="20.0" y="96.0" width="180.0" height="100.0" fill="#ffffff" stroke="#10293b" stroke-width="3"/>
<text x="36.0" y="130.0" text-anchor="start" dominant-baseline="middle" font-family="Arial, Helvetica, sans-serif" font-size="24" font-weight="400" fill="#111827">head:</text>
<text x="36.0" y="164.0" text-anchor="start" dominant-baseline="middle" font-family="Arial, Helvetica, sans-serif" font-size="24" font-weight="400" fill="#111827">tail:</text>
<rect x="270.0" y="96.0" width="180.0" height="100.0" fill="#fcd9a3" stroke="#10293b" stroke-width="3"/>
<text x="286.0" y="130.0" text-anchor="start" dominant-baseline="middle" font-family="Arial, Helvetica, sans-serif" font-size="24" font-weight="400" fill="#111827">data: 42</text>
<text x="286.0" y="164.0" text-anchor="start" dominant-baseline="middle" font-family="Arial, Helvetica, sans-serif" font-size="24" font-weight="400" fill="#111827">next: nullptr</text>
<polyline points="104.0,130.0 254.0,130.0" fill="none" stroke="#1f5f85" stroke-width="4" stroke-linejoin="miter"/>
<polygon points="270.0,130.0 254.0,138.0 254.0,122.0" fill="#1f5f85"/>
<polyline points="104.0,164.0 235.0,164.0 235.0,238.0 360.0,238.0 360.0,212.0" fill="none" stroke="#e8730c" stroke-width="4" stroke-linejoin="miter"/>
<polygon points="360.0,196.0 368.0,212.0 352.0,212.0" fill="#e8730c"/>
<text x="360.0" y="38.0" text-anchor="middle" dominant-baseline="middle" font-family="Arial, Helvetica, sans-serif" font-size="24" font-weight="700" fill="#111827">newNode</text>
<polyline points="360.0,56.0 360.0,80.0" fill="none" stroke="#1f5f85" stroke-width="4" stroke-linejoin="miter"/>
<polygon points="360.0,96.0 352.0,80.0 368.0,80.0" fill="#1f5f85"/>
</g>
<rect x="20.0" y="424.0" width="2010.0" height="832.0" rx="14" fill="#f8fafc" stroke="#94a3b8" stroke-width="2"/>
<text x="40.0" y="456.0" dominant-baseline="middle" font-family="Arial, Helvetica, sans-serif" font-size="30" font-weight="700" fill="#111827">Case 2: Non-empty list</text>
<text x="60.0" y="506.0" dominant-baseline="middle" font-family="Arial, Helvetica, sans-serif" font-size="24" fill="#111827"><tspan font-weight="700">Step 0:</tspan><tspan font-family="Menlo, Consolas, 'Courier New', monospace" dx="10">head != nullptr</tspan></text>
<g transform="translate(40.0,510.0)">
<rect x="20.0" y="176.0" width="180.0" height="100.0" fill="#ffffff" stroke="#10293b" stroke-width="3"/>
<text x="36.0" y="210.0" text-anchor="start" dominant-baseline="middle" font-family="Arial, Helvetica, sans-serif" font-size="24" font-weight="400" fill="#111827">head:</text>
<text x="36.0" y="244.0" text-anchor="start" dominant-baseline="middle" font-family="Arial, Helvetica, sans-serif" font-size="24" font-weight="400" fill="#111827">tail:</text>
<rect x="270.0" y="20.0" width="180.0" height="100.0" fill="#fcd9a3" stroke="#10293b" stroke-width="3"/>
<text x="286.0" y="54.0" text-anchor="start" dominant-baseline="middle" font-family="Arial, Helvetica, sans-serif" font-size="24" font-weight="400" fill="#111827">data: 42</text>
<text x="286.0" y="88.0" text-anchor="start" dominant-baseline="middle" font-family="Arial, Helvetica, sans-serif" font-size="24" font-weight="400" fill="#111827">next: nullptr</text>
<rect x="520.0" y="176.0" width="180.0" height="100.0" fill="#a8c9eb" stroke="#10293b" stroke-width="3"/>
<text x="536.0" y="210.0" text-anchor="start" dominant-baseline="middle" font-family="Arial, Helvetica, sans-serif" font-size="24" font-weight="400" fill="#111827">data: 99</text>
<text x="536.0" y="244.0" text-anchor="start" dominant-baseline="middle" font-family="Arial, Helvetica, sans-serif" font-size="24" font-weight="400" fill="#111827">next:</text>
<rect x="770.0" y="176.0" width="180.0" height="100.0" fill="#a8c9eb" stroke="#10293b" stroke-width="3"/>
<text x="786.0" y="210.0" text-anchor="start" dominant-baseline="middle" font-family="Arial, Helvetica, sans-serif" font-size="24" font-weight="400" fill="#111827">data: 71</text>
<text x="786.0" y="244.0" text-anchor="start" dominant-baseline="middle" font-family="Arial, Helvetica, sans-serif" font-size="24" font-weight="400" fill="#111827">next: nullptr</text>
<polyline points="104.0,210.0 504.0,210.0" fill="none" stroke="#1f5f85" stroke-width="4" stroke-linejoin="miter"/>
<polygon points="520.0,210.0 504.0,218.0 504.0,202.0" fill="#1f5f85"/>
<polyline points="104.0,244.0 235.0,244.0 235.0,318.0 860.0,318.0 860.0,292.0" fill="none" stroke="#1f5f85" stroke-width="4" stroke-linejoin="miter"/>
<polygon points="860.0,276.0 868.0,292.0 852.0,292.0" fill="#1f5f85"/>
<polyline points="604.0,244.0 754.0,244.0" fill="none" stroke="#1f5f85" stroke-width="4" stroke-linejoin="miter"/>
<polygon points="770.0,244.0 754.0,252.0 754.0,236.0" fill="#1f5f85"/>
<text x="208.0" y="54.0" text-anchor="end" dominant-baseline="middle" font-family="Arial, Helvetica, sans-serif" font-size="24" font-weight="700" fill="#111827">newNode</text>
<polyline points="214.0,54.0 254.0,54.0" fill="none" stroke="#1f5f85" stroke-width="4" stroke-linejoin="miter"/>
<polygon points="270.0,54.0 254.0,62.0 254.0,46.0" fill="#1f5f85"/>
</g>
<line x1="1025.0" y1="488.0" x2="1025.0" y2="850.0" stroke="#94a3b8" stroke-width="1.5" stroke-dasharray="6 6"/>
<text x="1060.0" y="506.0" dominant-baseline="middle" font-family="Arial, Helvetica, sans-serif" font-size="24" fill="#111827"><tspan font-weight="700">Step 1:</tspan><tspan font-family="Menlo, Consolas, 'Courier New', monospace" dx="10">newNode-&gt;next = head</tspan></text>
<g transform="translate(1040.0,510.0)">
<rect x="20.0" y="176.0" width="180.0" height="100.0" fill="#ffffff" stroke="#10293b" stroke-width="3"/>
<text x="36.0" y="210.0" text-anchor="start" dominant-baseline="middle" font-family="Arial, Helvetica, sans-serif" font-size="24" font-weight="400" fill="#111827">head:</text>
<text x="36.0" y="244.0" text-anchor="start" dominant-baseline="middle" font-family="Arial, Helvetica, sans-serif" font-size="24" font-weight="400" fill="#111827">tail:</text>
<rect x="270.0" y="20.0" width="180.0" height="100.0" fill="#fcd9a3" stroke="#10293b" stroke-width="3"/>
<text x="286.0" y="54.0" text-anchor="start" dominant-baseline="middle" font-family="Arial, Helvetica, sans-serif" font-size="24" font-weight="400" fill="#111827">data: 42</text>
<text x="286.0" y="88.0" text-anchor="start" dominant-baseline="middle" font-family="Arial, Helvetica, sans-serif" font-size="24" font-weight="400" fill="#111827">next:</text>
<rect x="520.0" y="176.0" width="180.0" height="100.0" fill="#a8c9eb" stroke="#10293b" stroke-width="3"/>
<text x="536.0" y="210.0" text-anchor="start" dominant-baseline="middle" font-family="Arial, Helvetica, sans-serif" font-size="24" font-weight="400" fill="#111827">data: 99</text>
<text x="536.0" y="244.0" text-anchor="start" dominant-baseline="middle" font-family="Arial, Helvetica, sans-serif" font-size="24" font-weight="400" fill="#111827">next:</text>
<rect x="770.0" y="176.0" width="180.0" height="100.0" fill="#a8c9eb" stroke="#10293b" stroke-width="3"/>
<text x="786.0" y="210.0" text-anchor="start" dominant-baseline="middle" font-family="Arial, Helvetica, sans-serif" font-size="24" font-weight="400" fill="#111827">data: 71</text>
<text x="786.0" y="244.0" text-anchor="start" dominant-baseline="middle" font-family="Arial, Helvetica, sans-serif" font-size="24" font-weight="400" fill="#111827">next: nullptr</text>
<polyline points="104.0,210.0 504.0,210.0" fill="none" stroke="#1f5f85" stroke-width="4" stroke-linejoin="miter"/>
<polygon points="520.0,210.0 504.0,218.0 504.0,202.0" fill="#1f5f85"/>
<polyline points="104.0,244.0 235.0,244.0 235.0,318.0 860.0,318.0 860.0,292.0" fill="none" stroke="#1f5f85" stroke-width="4" stroke-linejoin="miter"/>
<polygon points="860.0,276.0 868.0,292.0 852.0,292.0" fill="#1f5f85"/>
<polyline points="354.0,88.0 610.0,88.0 610.0,160.0" fill="none" stroke="#e8730c" stroke-width="4" stroke-linejoin="miter"/>
<polygon points="610.0,176.0 602.0,160.0 618.0,160.0" fill="#e8730c"/>
<polyline points="604.0,244.0 754.0,244.0" fill="none" stroke="#1f5f85" stroke-width="4" stroke-linejoin="miter"/>
<polygon points="770.0,244.0 754.0,252.0 754.0,236.0" fill="#1f5f85"/>
<text x="208.0" y="54.0" text-anchor="end" dominant-baseline="middle" font-family="Arial, Helvetica, sans-serif" font-size="24" font-weight="700" fill="#111827">newNode</text>
<polyline points="214.0,54.0 254.0,54.0" fill="none" stroke="#1f5f85" stroke-width="4" stroke-linejoin="miter"/>
<polygon points="270.0,54.0 254.0,62.0 254.0,46.0" fill="#1f5f85"/>
</g>
<line x1="40.0" y1="858.0" x2="2010.0" y2="858.0" stroke="#94a3b8" stroke-width="1.5" stroke-dasharray="6 6"/>
<text x="60.0" y="884.0" dominant-baseline="middle" font-family="Arial, Helvetica, sans-serif" font-size="24" fill="#111827"><tspan font-weight="700">Step 2:</tspan><tspan font-family="Menlo, Consolas, 'Courier New', monospace" dx="10">head = newNode</tspan></text>
<g transform="translate(40.0,888.0)">
<rect x="20.0" y="176.0" width="180.0" height="100.0" fill="#ffffff" stroke="#10293b" stroke-width="3"/>
<text x="36.0" y="210.0" text-anchor="start" dominant-baseline="middle" font-family="Arial, Helvetica, sans-serif" font-size="24" font-weight="400" fill="#111827">head:</text>
<text x="36.0" y="244.0" text-anchor="start" dominant-baseline="middle" font-family="Arial, Helvetica, sans-serif" font-size="24" font-weight="400" fill="#111827">tail:</text>
<rect x="270.0" y="20.0" width="180.0" height="100.0" fill="#fcd9a3" stroke="#10293b" stroke-width="3"/>
<text x="286.0" y="54.0" text-anchor="start" dominant-baseline="middle" font-family="Arial, Helvetica, sans-serif" font-size="24" font-weight="400" fill="#111827">data: 42</text>
<text x="286.0" y="88.0" text-anchor="start" dominant-baseline="middle" font-family="Arial, Helvetica, sans-serif" font-size="24" font-weight="400" fill="#111827">next:</text>
<rect x="520.0" y="176.0" width="180.0" height="100.0" fill="#a8c9eb" stroke="#10293b" stroke-width="3"/>
<text x="536.0" y="210.0" text-anchor="start" dominant-baseline="middle" font-family="Arial, Helvetica, sans-serif" font-size="24" font-weight="400" fill="#111827">data: 99</text>
<text x="536.0" y="244.0" text-anchor="start" dominant-baseline="middle" font-family="Arial, Helvetica, sans-serif" font-size="24" font-weight="400" fill="#111827">next:</text>
<rect x="770.0" y="176.0" width="180.0" height="100.0" fill="#a8c9eb" stroke="#10293b" stroke-width="3"/>
<text x="786.0" y="210.0" text-anchor="start" dominant-baseline="middle" font-family="Arial, Helvetica, sans-serif" font-size="24" font-weight="400" fill="#111827">data: 71</text>
<text x="786.0" y="244.0" text-anchor="start" dominant-baseline="middle" font-family="Arial, Helvetica, sans-serif" font-size="24" font-weight="400" fill="#111827">next: nullptr</text>
<polyline points="104.0,210.0 360.0,210.0 360.0,136.0" fill="none" stroke="#e8730c" stroke-width="4" stroke-linejoin="miter"/>
<polygon points="360.0,120.0 368.0,136.0 352.0,136.0" fill="#e8730c"/>
<polyline points="104.0,244.0 235.0,244.0 235.0,318.0 860.0,318.0 860.0,292.0" fill="none" stroke="#1f5f85" stroke-width="4" stroke-linejoin="miter"/>
<polygon points="860.0,276.0 868.0,292.0 852.0,292.0" fill="#1f5f85"/>
<polyline points="354.0,88.0 610.0,88.0 610.0,160.0" fill="none" stroke="#1f5f85" stroke-width="4" stroke-linejoin="miter"/>
<polygon points="610.0,176.0 602.0,160.0 618.0,160.0" fill="#1f5f85"/>
<polyline points="604.0,244.0 754.0,244.0" fill="none" stroke="#1f5f85" stroke-width="4" stroke-linejoin="miter"/>
<polygon points="770.0,244.0 754.0,252.0 754.0,236.0" fill="#1f5f85"/>
<text x="208.0" y="54.0" text-anchor="end" dominant-baseline="middle" font-family="Arial, Helvetica, sans-serif" font-size="24" font-weight="700" fill="#111827">newNode</text>
<polyline points="214.0,54.0 254.0,54.0" fill="none" stroke="#1f5f85" stroke-width="4" stroke-linejoin="miter"/>
<polygon points="270.0,54.0 254.0,62.0 254.0,46.0" fill="#1f5f85"/>
</g>
<line x1="1025.0" y1="866.0" x2="1025.0" y2="1228.0" stroke="#94a3b8" stroke-width="1.5" stroke-dasharray="6 6"/>
<text x="1060.0" y="884.0" dominant-baseline="middle" font-family="Arial, Helvetica, sans-serif" font-size="24" fill="#111827"><tspan font-weight="700">Step 3:</tspan><tspan font-family="Menlo, Consolas, 'Courier New', monospace" dx="10">tail != nullptr</tspan><tspan dx="10">(tail unchanged)</tspan></text>
<g transform="translate(1040.0,888.0)">
<rect x="20.0" y="176.0" width="180.0" height="100.0" fill="#ffffff" stroke="#10293b" stroke-width="3"/>
<text x="36.0" y="210.0" text-anchor="start" dominant-baseline="middle" font-family="Arial, Helvetica, sans-serif" font-size="24" font-weight="400" fill="#111827">head:</text>
<text x="36.0" y="244.0" text-anchor="start" dominant-baseline="middle" font-family="Arial, Helvetica, sans-serif" font-size="24" font-weight="400" fill="#111827">tail:</text>
<rect x="270.0" y="20.0" width="180.0" height="100.0" fill="#fcd9a3" stroke="#10293b" stroke-width="3"/>
<text x="286.0" y="54.0" text-anchor="start" dominant-baseline="middle" font-family="Arial, Helvetica, sans-serif" font-size="24" font-weight="400" fill="#111827">data: 42</text>
<text x="286.0" y="88.0" text-anchor="start" dominant-baseline="middle" font-family="Arial, Helvetica, sans-serif" font-size="24" font-weight="400" fill="#111827">next:</text>
<rect x="520.0" y="176.0" width="180.0" height="100.0" fill="#a8c9eb" stroke="#10293b" stroke-width="3"/>
<text x="536.0" y="210.0" text-anchor="start" dominant-baseline="middle" font-family="Arial, Helvetica, sans-serif" font-size="24" font-weight="400" fill="#111827">data: 99</text>
<text x="536.0" y="244.0" text-anchor="start" dominant-baseline="middle" font-family="Arial, Helvetica, sans-serif" font-size="24" font-weight="400" fill="#111827">next:</text>
<rect x="770.0" y="176.0" width="180.0" height="100.0" fill="#a8c9eb" stroke="#10293b" stroke-width="3"/>
<text x="786.0" y="210.0" text-anchor="start" dominant-baseline="middle" font-family="Arial, Helvetica, sans-serif" font-size="24" font-weight="400" fill="#111827">data: 71</text>
<text x="786.0" y="244.0" text-anchor="start" dominant-baseline="middle" font-family="Arial, Helvetica, sans-serif" font-size="24" font-weight="400" fill="#111827">next: nullptr</text>
<polyline points="104.0,210.0 360.0,210.0 360.0,136.0" fill="none" stroke="#1f5f85" stroke-width="4" stroke-linejoin="miter"/>
<polygon points="360.0,120.0 368.0,136.0 352.0,136.0" fill="#1f5f85"/>
<polyline points="104.0,244.0 235.0,244.0 235.0,318.0 860.0,318.0 860.0,292.0" fill="none" stroke="#1f5f85" stroke-width="4" stroke-linejoin="miter"/>
<polygon points="860.0,276.0 868.0,292.0 852.0,292.0" fill="#1f5f85"/>
<polyline points="354.0,88.0 610.0,88.0 610.0,160.0" fill="none" stroke="#1f5f85" stroke-width="4" stroke-linejoin="miter"/>
<polygon points="610.0,176.0 602.0,160.0 618.0,160.0" fill="#1f5f85"/>
<polyline points="604.0,244.0 754.0,244.0" fill="none" stroke="#1f5f85" stroke-width="4" stroke-linejoin="miter"/>
<polygon points="770.0,244.0 754.0,252.0 754.0,236.0" fill="#1f5f85"/>
<text x="208.0" y="54.0" text-anchor="end" dominant-baseline="middle" font-family="Arial, Helvetica, sans-serif" font-size="24" font-weight="700" fill="#111827">newNode</text>
<polyline points="214.0,54.0 254.0,54.0" fill="none" stroke="#1f5f85" stroke-width="4" stroke-linejoin="miter"/>
<polygon points="270.0,54.0 254.0,62.0 254.0,46.0" fill="#1f5f85"/>
</g>
</g>
</svg>
